<svg xmlns="http://www.w3.org/2000/svg" xmlns:xlink="http://www.w3.org/1999/xlink" width="1920" height="475" viewBox="0 0 1920 475">
  <defs>
    <clipPath id="clip-path">
      <rect id="Rectangle_10" data-name="Rectangle 10" width="1920" height="475" transform="translate(0 605)" fill="#fff" stroke="#707070" stroke-width="1"/>
    </clipPath>
    <linearGradient id="linear-gradient" y1="0.5" x2="1" y2="0.5" gradientUnits="objectBoundingBox">
      <stop offset="0" stop-color="#7dc7b4"/>
      <stop offset="1" stop-color="#29679f"/>
    </linearGradient>
  </defs>
  <g id="Mask_Group_4" data-name="Mask Group 4" transform="translate(0 -605)" clip-path="url(#clip-path)">
    <g id="Group_17" data-name="Group 17" transform="translate(68 77.928)">
      <g id="Group_6" data-name="Group 6" transform="translate(-67.72 524.559)" opacity="0.5" style="mix-blend-mode: multiply;isolation: isolate">
        <path id="Path_11" data-name="Path 11" d="M440.519,309.589C283.766,253.737,130.668,180.343-2.721,81.935V559.524H1917V367.506C1434.037,496.751,911.675,477.465,440.519,309.589Z" transform="translate(2.721 -81.935)" fill="url(#linear-gradient)"/>
      </g>
      <g id="Group_7" data-name="Group 7" transform="translate(898.305 570.845)" opacity="0.5" style="mix-blend-mode: multiply;isolation: isolate">
        <path id="Path_12" data-name="Path 12" d="M1083.86,88.3C844.139,285.584,552.142,415.622,250.5,491.945Q190.59,507.1,130.165,519.606h953.7Z" transform="translate(49.835 -88.302)" fill="url(#linear-gradient)"/>
      </g>
      <g id="Group_8" data-name="Group 8" transform="translate(-68.041 364.309)" opacity="0.5" style="mix-blend-mode: multiply;isolation: isolate">
        <path id="Path_13" data-name="Path 13" d="M1645.605,439.246C1372.1,596.763,1048.431,642.765,736.489,617.605c-251.884-20.318-498.04-84.618-739.21-164.292V697.731h2066.7V59.891C1949.932,213.555,1808.819,345.243,1645.605,439.246Z" transform="translate(2.721 -59.891)" fill="url(#linear-gradient)"/>
      </g>
      <g id="Group_9" data-name="Group 9" transform="translate(-67.72 658.341)" opacity="0.5" style="mix-blend-mode: multiply;isolation: isolate">
        <path id="Path_14" data-name="Path 14" d="M-2.721,100.338V444.145H933.738C710.577,415.532,313.709,378.617-2.721,100.338Z" transform="translate(2.721 -100.338)" fill="url(#linear-gradient)"/>
      </g>
    </g>
  </g>
</svg>
