<svg xmlns="http://www.w3.org/2000/svg" xmlns:xlink="http://www.w3.org/1999/xlink" width="800" height="377" viewBox="0 0 800 377">
  <defs>
    <clipPath id="clip-path">
      <rect id="Rectangle_9" data-name="Rectangle 9" width="800" height="377" transform="translate(0 735)" fill="#fff" stroke="#707070" stroke-width="1"/>
    </clipPath>
    <linearGradient id="linear-gradient" y1="0.5" x2="1" y2="0.5" gradientUnits="objectBoundingBox">
      <stop offset="0" stop-color="#7dc7b4"/>
      <stop offset="1" stop-color="#29679f"/>
    </linearGradient>
  </defs>
  <g id="Mask_Group_3" data-name="Mask Group 3" transform="translate(0 -735)" clip-path="url(#clip-path)">
    <g id="Group_76" data-name="Group 76" transform="translate(68.22 109.928)">
      <g id="Group_6" data-name="Group 6" transform="translate(-67.72 618.572)" opacity="0.5" style="mix-blend-mode: multiply;isolation: isolate">
        <path id="Path_11" data-name="Path 11" d="M181.874,264.775A726.916,726.916,0,0,1-2.721,81.935V465.511h799.5V311.291C595.641,415.1,378.095,399.605,181.874,264.775Z" transform="translate(2.721 -81.935)" fill="url(#linear-gradient)"/>
      </g>
      <g id="Group_7" data-name="Group 7" transform="translate(-144.817 591.782)" opacity="0.5" style="mix-blend-mode: multiply;isolation: isolate">
        <path id="Path_12" data-name="Path 12" d="M1083.86,88.3C844.139,276.007,552.142,399.732,250.5,472.351q-59.909,14.421-120.333,26.318h953.7Z" transform="translate(-130.165 -88.302)" fill="url(#linear-gradient)"/>
      </g>
      <g id="Group_8" data-name="Group 8" transform="translate(-67.72 364.309)" opacity="0.5" style="mix-blend-mode: multiply;isolation: isolate">
        <path id="Path_13" data-name="Path 13" d="M634.933,283.213c-105.806,92.729-231.016,119.809-351.691,105C185.8,376.25,90.576,338.4-2.721,291.494V435.38h799.5V59.891C752.662,150.351,698.072,227.875,634.933,283.213Z" transform="translate(2.721 202.46)" fill="url(#linear-gradient)"/>
      </g>
      <g id="Group_9" data-name="Group 9" transform="translate(-136.199 550.992)" opacity="0.5" style="mix-blend-mode: multiply;isolation: isolate">
        <path id="Path_14" data-name="Path 14" d="M-2.721,100.338V531.231H1296.605c-200.641-23.238-521.693-27.892-828.561-139.261C300.99,331.343,151.824,223.106-2.721,100.338Z" transform="translate(2.721 -80.075)" fill="url(#linear-gradient)"/>
      </g>
    </g>
  </g>
</svg>
