<svg xmlns="http://www.w3.org/2000/svg" xmlns:xlink="http://www.w3.org/1999/xlink" width="800" height="377" viewBox="0 0 800 377"><defs><clipPath id="a"><rect width="800" height="377" transform="translate(0 735)" fill="none"/></clipPath><linearGradient id="b" y1="0.5" x2="1" y2="0.5" gradientUnits="objectBoundingBox"><stop offset="0" stop-color="#7dc7b4"/><stop offset="1" stop-color="#29679f"/></linearGradient></defs><g transform="translate(0 -735)" clip-path="url(#a)"><g transform="translate(68.72 109.928)"><g transform="translate(-67.72 524.559)" opacity="0.5" style="mix-blend-mode:multiply;isolation:isolate"><path d="M379.246,425.305C244.162,341.064,112.229,230.364-2.721,81.935V802.282H1651.617V512.661C1235.42,707.6,785.269,678.513,379.246,425.305Z" transform="translate(-391.78 -324.693)" fill="url(#b)"/></g><g transform="translate(-714.379 526.314)" opacity="0.5" style="mix-blend-mode:multiply;isolation:isolate"><path d="M2219.835,342.894C1851.045,460.4,1414.623,494.721,994.009,475.951,654.376,460.793,322.466,412.826-2.721,353.388V535.725H2783.953V59.891C2630.182,174.526,2439.908,272.767,2219.835,342.894Z" transform="translate(-1187.775 -59.891)" fill="url(#b)"/></g><g transform="translate(-376.949 535.053)" opacity="0.5" style="mix-blend-mode:multiply;isolation:isolate"><path d="M135.021,184.805-2.721,555.365H1697.3C1292.176,517.5,709.457,553.107,135.021,184.805Z" transform="translate(2.721 -88.269)" fill="url(#b)"/></g></g></g></svg>