<?xml version="1.0" encoding="utf-8"?>
<svg viewBox="0 0 537.45 346.96" xmlns="http://www.w3.org/2000/svg" xmlns:xlink="http://www.w3.org/1999/xlink">
  <defs>
    <linearGradient id="linear-gradient" x1="425.83" y1="408.4" x2="76.64" y2="-122.73" gradientTransform="translate(504 288) rotate(-180)" gradientUnits="userSpaceOnUse">
      <stop offset="0" stop-color="#d4dde6"/>
      <stop offset="0.32" stop-color="#e7ecf1"/>
      <stop offset="0.71" stop-color="#f9fafb"/>
      <stop offset="1" stop-color="#fff"/>
    </linearGradient>
    <clipPath id="clip-path" transform="translate(22.11 37.98)">
      <rect class="cls-1" width="504" height="288" transform="translate(504 288) rotate(180)"/>
    </clipPath>
    <linearGradient id="linear-gradient-3" x1="-702.86" y1="-457.21" x2="-671.82" y2="-488.25" gradientTransform="translate(4525.03 -3336.2) rotate(-45) scale(8.05 1.68)" gradientUnits="userSpaceOnUse">
      <stop offset="0" stop-color="#757b80"/>
      <stop offset="0.22" stop-color="#a2a6a9"/>
      <stop offset="0.46" stop-color="#caccce"/>
      <stop offset="0.68" stop-color="#e7e8e9"/>
      <stop offset="0.86" stop-color="#f9f9f9"/>
      <stop offset="1" stop-color="#fff"/>
    </linearGradient>
    <linearGradient id="linear-gradient-4" x1="-685.78" y1="-460.42" x2="-654.74" y2="-491.46" xlink:href="#linear-gradient-3"/>
    <linearGradient id="linear-gradient-5" x1="-703.92" y1="-437.99" x2="-672.88" y2="-469.03" xlink:href="#linear-gradient-3"/>
    <linearGradient id="linear-gradient-6" x1="-688.63" y1="-442.99" x2="-657.59" y2="-474.03" xlink:href="#linear-gradient-3"/>
    <linearGradient id="linear-gradient-7" x1="-719.55" y1="-413.04" x2="-688.51" y2="-444.08" xlink:href="#linear-gradient-3"/>
    <linearGradient id="linear-gradient-8" x1="-704.98" y1="-418.76" x2="-673.94" y2="-449.8" xlink:href="#linear-gradient-3"/>
    <linearGradient id="linear-gradient-9" x1="-687.57" y1="-421.64" x2="-656.53" y2="-452.68" xlink:href="#linear-gradient-3"/>
    <linearGradient id="linear-gradient-10" x1="-721.25" y1="-394.46" x2="-690.21" y2="-425.5" xlink:href="#linear-gradient-3"/>
    <linearGradient id="linear-gradient-11" x1="-705.15" y1="-398.64" x2="-674.11" y2="-429.68" gradientTransform="translate(5650.34 775.18) scale(8.05 1.68)" xlink:href="#linear-gradient-3"/>
    <linearGradient id="linear-gradient-12" x1="-686.51" y1="-400.29" x2="-655.47" y2="-431.33" xlink:href="#linear-gradient-3"/>
    <linearGradient id="linear-gradient-13" x1="-722.31" y1="-375.23" x2="-691.27" y2="-406.27" xlink:href="#linear-gradient-3"/>
    <linearGradient id="linear-gradient-14" x1="-705.15" y1="-378.35" x2="-674.11" y2="-409.39" gradientTransform="translate(5674.45 765.19) scale(8.05 1.68)" xlink:href="#linear-gradient-3"/>
    <linearGradient id="linear-gradient-15" x1="-685.45" y1="-378.95" x2="-654.41" y2="-409.99" xlink:href="#linear-gradient-3"/>
    <linearGradient id="linear-gradient-16" x1="-723.37" y1="-356" x2="-692.33" y2="-387.04" xlink:href="#linear-gradient-3"/>
    <linearGradient id="linear-gradient-17" x1="-705.15" y1="-358.07" x2="-674.11" y2="-389.11" gradientTransform="translate(5698.56 755.2) scale(8.05 1.68)" xlink:href="#linear-gradient-3"/>
    <linearGradient id="linear-gradient-18" x1="-684.86" y1="-358.07" x2="-653.82" y2="-389.11" xlink:href="#linear-gradient-3"/>
    <linearGradient id="linear-gradient-19" x1="-666.34" y1="-359.83" x2="-635.3" y2="-390.87" xlink:href="#linear-gradient-3"/>
    <linearGradient id="linear-gradient-20" x1="-724.43" y1="-336.77" x2="-693.39" y2="-367.81" xlink:href="#linear-gradient-3"/>
    <linearGradient id="linear-gradient-21" x1="-705.15" y1="-337.78" x2="-674.11" y2="-368.82" gradientTransform="translate(5722.67 745.22) scale(8.05 1.68)" xlink:href="#linear-gradient-3"/>
    <linearGradient id="linear-gradient-22" x1="-684.86" y1="-337.78" x2="-653.82" y2="-368.82" gradientTransform="translate(5674.84 629.75) scale(8.05 1.68)" xlink:href="#linear-gradient-3"/>
    <linearGradient id="linear-gradient-23" x1="-668.12" y1="-341.33" x2="-637.08" y2="-372.37" xlink:href="#linear-gradient-3"/>
    <linearGradient id="linear-gradient-24" x1="-723.93" y1="-315.99" x2="-692.89" y2="-347.03" xlink:href="#linear-gradient-3"/>
    <linearGradient id="linear-gradient-25" x1="-705.15" y1="-317.49" x2="-674.11" y2="-348.53" gradientTransform="translate(5746.78 735.23) scale(8.05 1.68)" xlink:href="#linear-gradient-3"/>
    <linearGradient id="linear-gradient-26" x1="-684.86" y1="-317.49" x2="-653.82" y2="-348.53" gradientTransform="translate(5698.96 619.76) scale(8.05 1.68)" xlink:href="#linear-gradient-3"/>
    <linearGradient id="linear-gradient-27" x1="-667.06" y1="-319.98" x2="-636.02" y2="-351.02" xlink:href="#linear-gradient-3"/>
    <linearGradient id="linear-gradient-28" x1="-722.87" y1="-294.65" x2="-691.83" y2="-325.69" xlink:href="#linear-gradient-3"/>
    <linearGradient id="linear-gradient-29" x1="-705.15" y1="-297.21" x2="-674.11" y2="-328.25" gradientTransform="translate(5770.9 725.24) scale(8.05 1.68)" xlink:href="#linear-gradient-3"/>
    <linearGradient id="linear-gradient-30" x1="-684.86" y1="-297.21" x2="-653.82" y2="-328.25" gradientTransform="translate(5723.07 609.77) scale(8.05 1.68)" xlink:href="#linear-gradient-3"/>
    <linearGradient id="linear-gradient-31" x1="-666" y1="-298.63" x2="-634.96" y2="-329.68" xlink:href="#linear-gradient-3"/>
    <linearGradient id="linear-gradient-32" x1="-721.82" y1="-273.3" x2="-690.77" y2="-304.34" xlink:href="#linear-gradient-3"/>
    <linearGradient id="linear-gradient-33" x1="-705.15" y1="-276.92" x2="-674.11" y2="-307.96" gradientTransform="translate(5795.01 715.25) scale(8.05 1.68)" xlink:href="#linear-gradient-3"/>
    <linearGradient id="linear-gradient-34" x1="-684.86" y1="-276.92" x2="-653.82" y2="-307.96" gradientTransform="translate(5747.18 599.79) scale(8.05 1.68)" xlink:href="#linear-gradient-3"/>
    <linearGradient id="linear-gradient-35" x1="-664.94" y1="-277.29" x2="-633.9" y2="-308.33" xlink:href="#linear-gradient-3"/>
    <linearGradient id="linear-gradient-36" x1="-723.94" y1="-255.14" x2="-692.9" y2="-286.18" xlink:href="#linear-gradient-3"/>
    <linearGradient id="linear-gradient-37" x1="-705.15" y1="-256.63" x2="-674.11" y2="-287.67" xlink:href="#linear-gradient-3"/>
    <linearGradient id="linear-gradient-38" x1="-684.86" y1="-256.63" x2="-653.82" y2="-287.67" gradientTransform="translate(5771.29 589.8) scale(8.05 1.68)" xlink:href="#linear-gradient-3"/>
    <linearGradient id="linear-gradient-39" x1="-665.55" y1="-257.6" x2="-634.5" y2="-288.64" xlink:href="#linear-gradient-3"/>
    <linearGradient id="linear-gradient-40" x1="-704.48" y1="-235.68" x2="-673.44" y2="-266.72" xlink:href="#linear-gradient-3"/>
    <linearGradient id="linear-gradient-41" x1="-684.86" y1="-236.34" x2="-653.82" y2="-267.39" gradientTransform="translate(5795.4 579.81) scale(8.05 1.68)" xlink:href="#linear-gradient-3"/>
    <linearGradient id="linear-gradient-42" x1="-666.6" y1="-238.37" x2="-635.56" y2="-269.41" xlink:href="#linear-gradient-3"/>
    <linearGradient id="linear-gradient-43" x1="-703.42" y1="-214.33" x2="-672.38" y2="-245.37" xlink:href="#linear-gradient-3"/>
    <linearGradient id="linear-gradient-44" x1="-684.86" y1="-216.06" x2="-653.82" y2="-247.1" gradientTransform="translate(5819.51 569.82) scale(8.05 1.68)" xlink:href="#linear-gradient-3"/>
    <linearGradient id="linear-gradient-45" x1="-667.66" y1="-219.15" x2="-636.62" y2="-250.19" xlink:href="#linear-gradient-3"/>
    <linearGradient id="linear-gradient-46" x1="-702.36" y1="-192.99" x2="-671.32" y2="-224.03" xlink:href="#linear-gradient-3"/>
    <linearGradient id="linear-gradient-47" x1="-684.86" y1="-195.77" x2="-653.82" y2="-226.81" gradientTransform="translate(5843.62 559.83) scale(8.05 1.68)" xlink:href="#linear-gradient-3"/>
    <linearGradient id="linear-gradient-48" x1="-668.72" y1="-199.92" x2="-637.68" y2="-230.96" xlink:href="#linear-gradient-3"/>
    <linearGradient id="linear-gradient-49" x1="-701.31" y1="-171.64" x2="-670.27" y2="-202.68" xlink:href="#linear-gradient-3"/>
    <linearGradient id="linear-gradient-50" x1="-685" y1="-175.62" x2="-653.96" y2="-206.66" xlink:href="#linear-gradient-3"/>
    <linearGradient id="linear-gradient-51" x1="-670.29" y1="-181.2" x2="-639.25" y2="-212.24" xlink:href="#linear-gradient-3"/>
    <linearGradient id="linear-gradient-52" x1="-704.5" y1="-154.55" x2="-673.46" y2="-185.59" xlink:href="#linear-gradient-3"/>
    <linearGradient id="linear-gradient-53" x1="-686.06" y1="-156.39" x2="-655.01" y2="-187.43" xlink:href="#linear-gradient-3"/>
    <linearGradient id="linear-gradient-54" x1="-686.23" y1="-136.27" x2="-655.18" y2="-167.31" xlink:href="#linear-gradient-3"/>
    <style>
      .cls-1 {
        fill: url(#linear-gradient);
      }

      .cls-2 {
        isolation: isolate;
      }

      .cls-3 {
        clip-path: url(#clip-path);
      }

      .cls-4 {
        mix-blend-mode: color-burn;
      }

      .cls-5 {
        fill: url(#linear-gradient-3);
      }

      .cls-6 {
        fill: url(#linear-gradient-4);
      }

      .cls-7 {
        fill: url(#linear-gradient-5);
      }

      .cls-8 {
        fill: url(#linear-gradient-6);
      }

      .cls-9 {
        fill: url(#linear-gradient-7);
      }

      .cls-10 {
        fill: url(#linear-gradient-8);
      }

      .cls-11 {
        fill: url(#linear-gradient-9);
      }

      .cls-12 {
        fill: url(#linear-gradient-10);
      }

      .cls-13 {
        fill: url(#linear-gradient-11);
      }

      .cls-14 {
        fill: url(#linear-gradient-12);
      }

      .cls-15 {
        fill: url(#linear-gradient-13);
      }

      .cls-16 {
        fill: url(#linear-gradient-14);
      }

      .cls-17 {
        fill: url(#linear-gradient-15);
      }

      .cls-18 {
        fill: url(#linear-gradient-16);
      }

      .cls-19 {
        fill: url(#linear-gradient-17);
      }

      .cls-20 {
        fill: url(#linear-gradient-18);
      }

      .cls-21 {
        fill: url(#linear-gradient-19);
      }

      .cls-22 {
        fill: url(#linear-gradient-20);
      }

      .cls-23 {
        fill: url(#linear-gradient-21);
      }

      .cls-24 {
        fill: url(#linear-gradient-22);
      }

      .cls-25 {
        fill: url(#linear-gradient-23);
      }

      .cls-26 {
        fill: url(#linear-gradient-24);
      }

      .cls-27 {
        fill: url(#linear-gradient-25);
      }

      .cls-28 {
        fill: url(#linear-gradient-26);
      }

      .cls-29 {
        fill: url(#linear-gradient-27);
      }

      .cls-30 {
        fill: url(#linear-gradient-28);
      }

      .cls-31 {
        fill: url(#linear-gradient-29);
      }

      .cls-32 {
        fill: url(#linear-gradient-30);
      }

      .cls-33 {
        fill: url(#linear-gradient-31);
      }

      .cls-34 {
        fill: url(#linear-gradient-32);
      }

      .cls-35 {
        fill: url(#linear-gradient-33);
      }

      .cls-36 {
        fill: url(#linear-gradient-34);
      }

      .cls-37 {
        fill: url(#linear-gradient-35);
      }

      .cls-38 {
        fill: url(#linear-gradient-36);
      }

      .cls-39 {
        fill: url(#linear-gradient-37);
      }

      .cls-40 {
        fill: url(#linear-gradient-38);
      }

      .cls-41 {
        fill: url(#linear-gradient-39);
      }

      .cls-42 {
        fill: url(#linear-gradient-40);
      }

      .cls-43 {
        fill: url(#linear-gradient-41);
      }

      .cls-44 {
        fill: url(#linear-gradient-42);
      }

      .cls-45 {
        fill: url(#linear-gradient-43);
      }

      .cls-46 {
        fill: url(#linear-gradient-44);
      }

      .cls-47 {
        fill: url(#linear-gradient-45);
      }

      .cls-48 {
        fill: url(#linear-gradient-46);
      }

      .cls-49 {
        fill: url(#linear-gradient-47);
      }

      .cls-50 {
        fill: url(#linear-gradient-48);
      }

      .cls-51 {
        fill: url(#linear-gradient-49);
      }

      .cls-52 {
        fill: url(#linear-gradient-50);
      }

      .cls-53 {
        fill: url(#linear-gradient-51);
      }

      .cls-54 {
        fill: url(#linear-gradient-52);
      }

      .cls-55 {
        fill: url(#linear-gradient-53);
      }

      .cls-56 {
        fill: url(#linear-gradient-54);
      }
    </style>
  </defs>
  <g class="cls-2" style="opacity: 0.2;" transform="matrix(1.211031, 0, 0, 1.211031, -52.539474, -44.280796)">
    <g id="Layer_1" data-name="Layer 1">
      <g>
        <rect class="cls-1" width="504" height="288" transform="translate(526.11 325.98) rotate(180)"/>
        <g class="cls-3">
          <g class="cls-4">
            <polygon class="cls-5" points="0 93.01 87.48 5.53 81.96 0 44.79 0 0 44.79 0 93.01"/>
            <polygon class="cls-6" points="81.96 0 87.48 5.53 93.01 0 81.96 0"/>
            <polygon class="cls-7" points="0 141.23 111.59 29.64 87.48 5.53 0 93.01 0 141.23"/>
            <polygon class="cls-8" points="93.01 0 87.48 5.53 111.59 29.64 141.23 0 93.01 0"/>
            <polygon class="cls-9" points="0 189.45 20.24 169.22 0 148.98 0 189.45"/>
            <polygon class="cls-10" points="0 148.98 20.24 169.22 135.71 53.75 111.59 29.64 0 141.23 0 148.98"/>
            <polygon class="cls-11" points="141.23 0 111.59 29.64 135.71 53.75 189.45 0 141.23 0"/>
            <polygon class="cls-12" points="0 237.68 44.35 193.33 20.24 169.22 0 189.45 0 237.68"/>
            <rect class="cls-13" x="-13.73" y="68.51" width="163.3" height="34.1" transform="translate(-18.49 111.07) rotate(-45)"/>
            <polygon class="cls-14" points="189.45 0 135.71 53.75 159.82 77.86 237.68 0 189.45 0"/>
            <polygon class="cls-15" points="0 285.9 68.46 217.44 44.35 193.33 0 237.68 0 285.9"/>
            <rect class="cls-16" x="10.38" y="92.62" width="163.3" height="34.1" transform="translate(-28.48 135.18) rotate(-45)"/>
            <polygon class="cls-17" points="237.68 0 159.82 77.86 183.93 101.97 285.9 0 237.68 0"/>
            <polygon class="cls-18" points="0 334.12 92.57 241.55 68.46 217.44 0 285.9 0 334.12"/>
            <rect class="cls-19" x="34.49" y="116.73" width="163.3" height="34.1" transform="translate(-38.47 159.29) rotate(-45)"/>
            <polygon class="cls-20" points="285.9 0 183.93 101.97 208.04 126.08 323.51 10.61 312.9 0 285.9 0"/>
            <polygon class="cls-21" points="312.9 0 323.51 10.61 334.12 0 312.9 0"/>
            <polygon class="cls-22" points="0 346.96 35.38 346.96 116.68 265.66 92.57 241.55 0 334.12 0 346.96"/>
            <rect class="cls-23" x="58.6" y="140.84" width="163.3" height="34.1" transform="translate(-48.46 183.4) rotate(-45)"/>
            <rect class="cls-24" x="174.07" y="25.37" width="163.3" height="34.1" transform="translate(67.01 231.23) rotate(-45)"/>
            <polygon class="cls-25" points="334.12 0 323.51 10.61 347.62 34.72 382.34 0 334.12 0"/>
            <polygon class="cls-26" points="83.61 346.96 140.79 289.77 116.68 265.66 35.38 346.96 83.61 346.96"/>
            <rect class="cls-27" x="82.71" y="164.95" width="163.3" height="34.1" transform="translate(-58.44 207.51) rotate(-45)"/>
            <rect class="cls-28" x="198.18" y="49.48" width="163.3" height="34.1" transform="translate(57.03 255.34) rotate(-45)"/>
            <polygon class="cls-29" points="382.34 0 347.62 34.72 371.73 58.84 430.57 0 382.34 0"/>
            <polygon class="cls-30" points="131.83 346.96 164.9 313.88 140.79 289.77 83.61 346.96 131.83 346.96"/>
            <rect class="cls-31" x="106.82" y="189.06" width="163.3" height="34.1" transform="translate(-68.43 231.62) rotate(-45)"/>
            <rect class="cls-32" x="222.29" y="73.59" width="163.3" height="34.1" transform="translate(47.04 279.45) rotate(-45)"/>
            <polygon class="cls-33" points="430.57 0 371.73 58.84 395.84 82.95 478.79 0 430.57 0"/>
            <polygon class="cls-34" points="180.05 346.96 189.01 338 164.9 313.88 131.83 346.96 180.05 346.96"/>
            <rect class="cls-35" x="130.93" y="213.17" width="163.3" height="34.1" transform="translate(-78.42 255.73) rotate(-45)"/>
            <rect class="cls-36" x="246.4" y="97.7" width="163.3" height="34.1" transform="translate(37.05 303.56) rotate(-45)"/>
            <polygon class="cls-37" points="478.79 0 395.84 82.95 419.95 107.06 527.01 0 478.79 0"/>
            <polygon class="cls-38" points="197.98 346.96 189.01 338 180.05 346.96 197.98 346.96"/>
            <polygon class="cls-39" points="228.27 346.96 328.6 246.64 304.48 222.53 189.01 338 197.98 346.96 228.27 346.96"/>
            <rect class="cls-40" x="270.51" y="121.81" width="163.3" height="34.1" transform="translate(27.07 327.67) rotate(-45)"/>
            <polygon class="cls-41" points="444.06 131.17 537.45 37.78 537.45 0 527.01 0 419.95 107.06 444.06 131.17"/>
            <polygon class="cls-42" points="276.5 346.96 352.71 270.75 328.6 246.64 228.27 346.96 276.5 346.96"/>
            <rect class="cls-43" x="294.63" y="145.93" width="163.3" height="34.1" transform="translate(17.08 351.78) rotate(-45)"/>
            <polygon class="cls-44" points="537.45 37.78 444.06 131.17 468.18 155.28 537.45 86.01 537.45 37.78"/>
            <polygon class="cls-45" points="324.72 346.96 376.82 294.86 352.71 270.75 276.5 346.96 324.72 346.96"/>
            <rect class="cls-46" x="318.74" y="170.04" width="163.3" height="34.1" transform="translate(7.09 375.9) rotate(-45)"/>
            <polygon class="cls-47" points="537.45 86.01 468.18 155.28 492.29 179.39 537.45 134.23 537.45 86.01"/>
            <polygon class="cls-48" points="372.94 346.96 400.93 318.97 376.82 294.86 324.72 346.96 372.94 346.96"/>
            <rect class="cls-49" x="342.85" y="194.15" width="163.3" height="34.1" transform="translate(-2.9 400.01) rotate(-45)"/>
            <polygon class="cls-50" points="537.45 134.23 492.29 179.39 516.4 203.5 537.45 182.45 537.45 134.23"/>
            <polygon class="cls-51" points="421.16 346.96 425.04 343.08 400.93 318.97 372.94 346.96 421.16 346.96"/>
            <polygon class="cls-52" points="425.04 343.08 537.45 230.67 537.45 224.55 516.4 203.5 400.93 318.97 425.04 343.08"/>
            <polygon class="cls-53" points="537.45 224.55 537.45 182.45 516.4 203.5 537.45 224.55"/>
            <polygon class="cls-54" points="428.92 346.96 425.04 343.08 421.16 346.96 428.92 346.96"/>
            <polygon class="cls-55" points="537.45 230.67 425.04 343.08 428.92 346.96 469.38 346.96 537.45 278.9 537.45 230.67"/>
            <polygon class="cls-56" points="537.45 278.9 469.38 346.96 517.61 346.96 537.45 327.12 537.45 278.9"/>
          </g>
        </g>
      </g>
    </g>
  </g>
</svg>